<svg width="2306" height="724" viewBox="0 0 2306 724" fill="none" xmlns="http://www.w3.org/2000/svg">
<path d="M0 273.349H1700.54V364.002H0V273.349Z" fill="#1A1617"/>
<rect y="182.696" width="1728.59" height="90.6531" fill="#528FAE"/>
<rect y="92.0427" width="1749.85" height="90.6531" fill="#F15731"/>
<path d="M0 1.38953H1699.75L1668.37 92.0427H0V1.38953Z" fill="#F9A11C"/>
<path d="M1699.75 1.38943L2304.57 426.965L2252.58 501.224L1644.79 75.6478L1699.75 1.38943Z" fill="#F9A11C"/>
<path d="M1668.37 92.0422L2252.58 501.224L2200.58 575.483L1601.47 155.978L1668.37 92.0422Z" fill="#F15731"/>
<path d="M1640.47 182.695L2200.58 575.482L2148.59 649.741L1559.04 236.935L1640.47 182.695Z" fill="#528FAE"/>
<path d="M1612.58 273.348L2148.59 649.741L2096.59 724L1511.79 314.52L1612.58 273.348Z" fill="#1A1617"/>
</svg>
